<svg width="355" height="86" viewBox="0 0 355 86" fill="none" xmlns="http://www.w3.org/2000/svg">
<g filter="url(#filter0_d_147_663)">
<path d="M66.0571 38.12C66.9871 38.12 67.4521 38.375 67.4521 38.885C67.4521 39.335 67.1071 39.815 66.4171 40.325C65.7271 40.835 65.0671 41.105 64.4371 41.135C60.4471 41.225 56.7721 41.735 53.4121 42.665C52.2121 46.535 51.1171 50.66 50.1271 55.04C52.6771 54.53 55.1821 54.275 57.6421 54.275C58.6921 54.275 59.7571 54.32 60.8371 54.41C61.4671 54.44 61.7821 54.65 61.7821 55.04C61.7821 55.49 61.4071 56.015 60.6571 56.615C59.9071 57.185 59.2621 57.455 58.7221 57.425C58.2721 57.395 57.5971 57.38 56.6971 57.38C54.4471 57.38 52.0171 57.65 49.4071 58.19C48.2071 63.5 47.2321 68.735 46.4821 73.895C46.3921 74.465 45.9421 74.975 45.1321 75.425C44.3221 75.845 43.5271 76.055 42.7471 76.055C42.2971 76.055 41.9371 75.965 41.6671 75.785C41.4271 75.605 41.3371 75.335 41.3971 74.975C42.3271 69.095 43.2721 63.965 44.2321 59.585L42.7021 60.125C42.1621 60.305 41.7121 60.395 41.3521 60.395C40.9921 60.395 40.7071 60.32 40.4971 60.17C40.2871 60.02 40.1821 59.81 40.1821 59.54C40.1821 59.24 40.3321 58.925 40.6321 58.595C40.9321 58.265 41.3671 57.965 41.9371 57.695C42.9871 57.215 43.9921 56.81 44.9521 56.48C45.9721 52.04 47.0821 48.005 48.2821 44.375C47.8621 44.495 47.5621 44.555 47.3821 44.555C46.9621 44.555 46.6021 44.45 46.3021 44.24C46.0021 44.03 45.8521 43.775 45.8521 43.475C45.8521 42.935 46.2721 42.47 47.1121 42.08C52.7821 39.35 59.0971 38.03 66.0571 38.12ZM78.8651 59.63C78.8651 56.45 77.0051 53.945 73.2851 52.115C72.3551 52.895 71.4251 53.93 70.4951 55.22C69.3551 56.87 68.4101 58.715 67.6601 60.755C67.3601 61.565 67.0751 62.675 66.8051 64.085C66.5351 65.465 66.4001 66.755 66.4001 67.955C66.4001 69.185 66.5651 70.175 66.8951 70.925C67.2551 71.645 67.8251 72.005 68.6051 72.005C69.2351 72.005 69.9701 71.75 70.8101 71.24C73.1201 69.89 75.0401 68.21 76.5701 66.2C78.1001 64.19 78.8651 62 78.8651 59.63ZM80.1251 51.485C81.2051 52.505 82.0301 53.66 82.6001 54.95C83.2001 56.24 83.5001 57.605 83.5001 59.045C83.5001 61.115 82.9001 63.215 81.7001 65.345C80.8901 66.785 79.7051 68.3 78.1451 69.89C76.5851 71.48 74.8451 72.83 72.9251 73.94C71.0351 75.02 69.2201 75.56 67.4801 75.56C66.4001 75.56 65.3801 75.32 64.4201 74.84C62.3801 73.73 61.3601 71.735 61.3601 68.855C61.3601 66.785 61.8251 64.52 62.7551 62.06C63.6851 59.57 64.6751 57.47 65.7251 55.76C68.2751 51.71 70.9601 49.16 73.7801 48.11C74.5601 47.81 75.4001 47.66 76.3001 47.66C77.3501 47.66 78.2351 47.93 78.9551 48.47C79.6751 48.98 80.0951 49.79 80.2151 50.9V51.08C80.2151 51.17 80.1851 51.305 80.1251 51.485ZM86.877 39.29C86.937 38.72 87.327 38.24 88.047 37.85C88.797 37.43 89.532 37.22 90.252 37.22C90.702 37.22 91.047 37.31 91.287 37.49C91.527 37.67 91.632 37.955 91.602 38.345C90.732 46.175 89.832 54.005 88.902 61.835L87.552 73.58C87.492 74.15 87.087 74.645 86.337 75.065C85.587 75.485 84.837 75.695 84.087 75.695C83.067 75.695 82.602 75.305 82.692 74.525L84.807 56.885C85.767 48.605 86.457 42.74 86.877 39.29ZM96.0737 39.29C96.1337 38.72 96.5237 38.24 97.2437 37.85C97.9937 37.43 98.7287 37.22 99.4487 37.22C99.8987 37.22 100.244 37.31 100.484 37.49C100.724 37.67 100.829 37.955 100.799 38.345C99.9287 46.175 99.0287 54.005 98.0987 61.835L96.7487 73.58C96.6887 74.15 96.2837 74.645 95.5337 75.065C94.7837 75.485 94.0337 75.695 93.2837 75.695C92.2637 75.695 91.7987 75.305 91.8887 74.525L94.0037 56.885C94.9637 48.605 95.6537 42.74 96.0737 39.29ZM116.958 59.63C116.958 56.45 115.098 53.945 111.378 52.115C110.448 52.895 109.518 53.93 108.588 55.22C107.448 56.87 106.503 58.715 105.753 60.755C105.453 61.565 105.168 62.675 104.898 64.085C104.628 65.465 104.493 66.755 104.493 67.955C104.493 69.185 104.658 70.175 104.988 70.925C105.348 71.645 105.918 72.005 106.698 72.005C107.328 72.005 108.063 71.75 108.903 71.24C111.213 69.89 113.133 68.21 114.663 66.2C116.193 64.19 116.958 62 116.958 59.63ZM118.218 51.485C119.298 52.505 120.123 53.66 120.693 54.95C121.293 56.24 121.593 57.605 121.593 59.045C121.593 61.115 120.993 63.215 119.793 65.345C118.983 66.785 117.798 68.3 116.238 69.89C114.678 71.48 112.938 72.83 111.018 73.94C109.128 75.02 107.313 75.56 105.573 75.56C104.493 75.56 103.473 75.32 102.513 74.84C100.473 73.73 99.453 71.735 99.453 68.855C99.453 66.785 99.918 64.52 100.848 62.06C101.778 59.57 102.768 57.47 103.818 55.76C106.368 51.71 109.053 49.16 111.873 48.11C112.653 47.81 113.493 47.66 114.393 47.66C115.443 47.66 116.328 47.93 117.048 48.47C117.768 48.98 118.188 49.79 118.308 50.9V51.08C118.308 51.17 118.278 51.305 118.218 51.485ZM147.764 47.93C148.034 47.6 148.424 47.345 148.934 47.165C149.444 46.985 149.954 46.895 150.464 46.895C150.944 46.895 151.334 46.985 151.634 47.165C151.964 47.315 152.129 47.54 152.129 47.84C152.129 48.11 151.994 48.425 151.724 48.785C149.234 52.085 147.149 55.655 145.469 59.495C143.819 63.305 142.379 67.535 141.149 72.185C141.029 72.665 140.654 73.085 140.024 73.445C139.394 73.775 138.749 73.94 138.089 73.94C137.609 73.94 137.204 73.835 136.874 73.625C136.574 73.415 136.409 73.085 136.379 72.635C136.109 69.845 135.764 65.78 135.344 60.44C132.734 65.6 130.724 69.815 129.314 73.085C129.194 73.565 128.819 73.985 128.189 74.345C127.589 74.675 126.974 74.84 126.344 74.84C125.954 74.84 125.594 74.75 125.264 74.57C124.814 74.42 124.589 74.165 124.589 73.805C124.589 73.715 124.619 73.58 124.679 73.4C124.349 69.71 123.944 64.145 123.464 56.705L123.014 50.09C122.984 49.52 123.314 49.025 124.004 48.605C124.694 48.185 125.429 47.975 126.209 47.975C126.659 47.975 127.034 48.08 127.334 48.29C127.634 48.47 127.799 48.755 127.829 49.145L128.819 64.13C130.589 60.47 132.554 56.735 134.714 52.925C134.744 52.415 135.104 51.965 135.794 51.575C136.484 51.185 137.189 50.99 137.909 50.99C138.479 50.99 138.899 51.125 139.169 51.395C139.409 51.605 139.514 51.83 139.484 52.07L139.529 52.16C139.679 53.93 139.934 56.84 140.294 60.89C142.424 55.76 144.914 51.44 147.764 47.93ZM181.028 65.345C181.238 65.135 181.568 64.97 182.018 64.85C182.468 64.73 182.918 64.67 183.368 64.67C184.478 64.67 185.033 64.955 185.033 65.525C185.033 65.795 184.883 66.095 184.583 66.425C184.223 66.845 183.893 67.25 183.593 67.64C183.293 68 183.023 68.33 182.783 68.63C181.463 70.34 180.278 71.705 179.228 72.725C178.178 73.715 176.948 74.435 175.538 74.885C174.878 75.095 174.173 75.2 173.423 75.2C172.163 75.2 171.083 74.84 170.183 74.12C169.313 73.4 168.803 72.35 168.653 70.97C168.593 70.58 168.563 69.98 168.563 69.17C168.563 67.61 168.743 66.02 169.103 64.4C169.463 62.78 169.988 60.755 170.678 58.325L171.218 56.39L169.508 56.57C168.668 56.63 167.528 56.75 166.088 56.93C165.398 57.02 164.873 56.945 164.513 56.705C164.153 56.465 163.973 56.15 163.973 55.76C163.973 55.31 164.183 54.875 164.603 54.455C165.053 54.005 165.623 53.75 166.313 53.69L172.118 53.015C173.438 48.155 174.923 43.385 176.573 38.705C176.723 38.285 177.128 37.925 177.788 37.625C178.478 37.295 179.138 37.13 179.768 37.13C180.158 37.13 180.473 37.205 180.713 37.355C180.983 37.505 181.118 37.73 181.118 38.03C181.118 38.12 181.088 38.285 181.028 38.525C179.288 43.415 177.833 48.08 176.663 52.52C178.763 52.31 180.158 52.205 180.848 52.205C181.718 52.205 182.153 52.46 182.153 52.97C182.153 53.39 181.898 53.855 181.388 54.365C180.878 54.845 180.353 55.145 179.813 55.265C178.013 55.565 176.663 55.775 175.763 55.895C175.253 57.935 174.803 59.93 174.413 61.88C174.353 62.12 174.143 63.005 173.783 64.535C173.423 66.035 173.243 67.445 173.243 68.765C173.243 70.475 173.693 71.405 174.593 71.555C175.163 71.645 175.808 71.33 176.528 70.61C177.278 69.86 178.238 68.75 179.408 67.28C180.128 66.35 180.668 65.705 181.028 65.345ZM203.093 47.66C203.573 47.81 203.798 48.125 203.768 48.605C202.928 56.645 201.698 65.03 200.078 73.76C199.958 74.33 199.538 74.81 198.818 75.2C198.098 75.59 197.378 75.785 196.658 75.785C196.208 75.785 195.848 75.695 195.578 75.515C195.308 75.305 195.218 75.02 195.308 74.66C196.028 71.54 196.628 68.345 197.108 65.075C197.588 61.805 198.053 58.055 198.503 53.825C196.043 56.105 193.583 58.595 191.123 61.295L188.648 74.975C188.528 75.545 188.093 76.04 187.343 76.46C186.593 76.88 185.843 77.09 185.093 77.09C184.643 77.09 184.298 77 184.058 76.82C183.818 76.61 183.728 76.31 183.788 75.92L185.993 63.545C185.633 63.455 185.453 63.245 185.453 62.915C185.453 62.675 185.588 62.375 185.858 62.015L186.398 61.295L190.448 39.29C190.538 38.75 190.958 38.285 191.708 37.895C192.458 37.505 193.193 37.31 193.913 37.31C194.333 37.31 194.663 37.4 194.903 37.58C195.143 37.76 195.233 38.015 195.173 38.345L192.293 54.635C194.513 52.415 196.988 50.3 199.718 48.29C200.588 47.69 201.398 47.39 202.148 47.39C202.508 47.39 202.823 47.48 203.093 47.66ZM217.405 51.125C215.875 52.295 214.63 54.185 213.67 56.795C216.61 55.685 219.265 54.755 221.635 54.005C220.645 52.625 219.64 51.695 218.62 51.215C218.41 51.125 218.2 51.065 217.99 51.035C217.81 51.005 217.705 50.99 217.675 50.99C217.705 51.02 217.675 51.05 217.585 51.08C217.525 51.11 217.465 51.125 217.405 51.125ZM217.585 47.93C218.065 47.81 218.575 47.75 219.115 47.75C221.995 47.75 224.605 49.685 226.945 53.555C227.035 53.675 227.08 53.825 227.08 54.005C227.08 54.335 226.87 54.68 226.45 55.04C226.12 55.4 225.7 55.685 225.19 55.895C222.19 57.215 218.02 58.79 212.68 60.62C212.38 62.15 212.23 63.725 212.23 65.345C212.23 66.095 212.245 66.635 212.275 66.965C212.335 68.315 212.605 69.485 213.085 70.475C213.235 70.805 213.445 71.12 213.715 71.42C214.015 71.72 214.24 71.915 214.39 72.005C214.48 72.065 214.63 72.095 214.84 72.095C215.05 72.095 215.29 72.035 215.56 71.915C215.86 71.795 216.19 71.63 216.55 71.42C217.42 70.91 218.23 70.325 218.98 69.665C219.73 69.005 220.63 68.15 221.68 67.1C222.1 66.68 222.805 66.47 223.795 66.47C224.335 66.47 224.785 66.56 225.145 66.74C225.535 66.89 225.73 67.115 225.73 67.415C225.73 67.685 225.58 67.985 225.28 68.315C223.42 70.325 221.515 72.035 219.565 73.445C217.615 74.855 215.665 75.56 213.715 75.56C212.785 75.56 211.915 75.365 211.105 74.975C209.755 74.345 208.78 73.34 208.18 71.96C207.58 70.58 207.28 68.96 207.28 67.1C207.28 65.72 207.46 64.1 207.82 62.24L207.46 62.33L207.1 62.465C206.65 62.615 206.29 62.69 206.02 62.69C205.6 62.69 205.27 62.585 205.03 62.375C204.79 62.165 204.67 61.895 204.67 61.565C204.67 61.175 204.82 60.8 205.12 60.44C205.45 60.05 205.93 59.735 206.56 59.495L208.765 58.64C209.035 57.8 209.44 56.705 209.98 55.355C210.82 53.495 211.87 51.89 213.13 50.54C214.39 49.19 215.875 48.32 217.585 47.93ZM266.143 38.885C266.293 38.855 266.503 38.84 266.773 38.84C267.283 38.84 267.658 38.945 267.898 39.155C268.168 39.335 268.303 39.575 268.303 39.875C268.303 40.325 268.063 40.775 267.583 41.225C267.103 41.645 266.518 41.915 265.828 42.035L265.648 42.26C265.378 42.53 265.063 42.995 264.703 43.655C264.133 44.705 263.563 46.19 262.993 48.11C262.243 50.81 261.583 54.455 261.013 59.045C260.653 62.045 260.323 65.39 260.023 69.08C259.993 69.29 259.978 69.62 259.978 70.07C259.918 71.03 259.828 71.825 259.708 72.455C259.588 73.055 259.363 73.565 259.033 73.985C258.763 74.285 258.283 74.6 257.593 74.93C256.933 75.23 256.318 75.38 255.748 75.38C254.998 75.38 254.548 75.08 254.398 74.48C253.738 72.26 252.943 69.02 252.013 64.76C251.863 64.1 251.638 63.125 251.338 61.835C251.038 60.545 250.768 59.42 250.528 58.46L249.313 53.825C249.133 55.715 248.908 57.62 248.638 59.54C248.158 62.99 247.633 65.87 247.063 68.18C246.523 70.49 245.638 72.56 244.408 74.39C244.078 74.9 243.613 75.32 243.013 75.65C242.443 75.95 241.858 76.1 241.258 76.1C240.838 76.1 240.448 76.025 240.088 75.875C239.728 75.695 239.548 75.455 239.548 75.155C239.548 74.945 239.608 74.765 239.728 74.615C240.838 72.635 241.663 70.505 242.203 68.225C242.773 65.915 243.298 63.065 243.778 59.675C244.468 54.605 244.813 49.925 244.813 45.635C244.813 43.895 244.783 42.59 244.723 41.72C244.693 41.15 245.038 40.655 245.758 40.235C246.478 39.785 247.228 39.56 248.008 39.56C248.608 39.56 249.058 39.71 249.358 40.01C250.048 40.7 250.573 41.48 250.933 42.35C251.323 43.19 251.803 44.45 252.373 46.13C253.123 48.29 254.068 51.56 255.208 55.94C255.418 56.69 255.703 57.815 256.063 59.315C256.183 58.385 256.393 56.96 256.693 55.04C257.173 52.16 257.683 49.7 258.223 47.66C258.793 45.62 259.723 43.73 261.013 41.99C262.303 40.22 264.013 39.185 266.143 38.885ZM280.707 59.63C280.707 56.45 278.847 53.945 275.127 52.115C274.197 52.895 273.267 53.93 272.337 55.22C271.197 56.87 270.252 58.715 269.502 60.755C269.202 61.565 268.917 62.675 268.647 64.085C268.377 65.465 268.242 66.755 268.242 67.955C268.242 69.185 268.407 70.175 268.737 70.925C269.097 71.645 269.667 72.005 270.447 72.005C271.077 72.005 271.812 71.75 272.652 71.24C274.962 69.89 276.882 68.21 278.412 66.2C279.942 64.19 280.707 62 280.707 59.63ZM281.967 51.485C283.047 52.505 283.872 53.66 284.442 54.95C285.042 56.24 285.342 57.605 285.342 59.045C285.342 61.115 284.742 63.215 283.542 65.345C282.732 66.785 281.547 68.3 279.987 69.89C278.427 71.48 276.687 72.83 274.767 73.94C272.877 75.02 271.062 75.56 269.322 75.56C268.242 75.56 267.222 75.32 266.262 74.84C264.222 73.73 263.202 71.735 263.202 68.855C263.202 66.785 263.667 64.52 264.597 62.06C265.527 59.57 266.517 57.47 267.567 55.76C270.117 51.71 272.802 49.16 275.622 48.11C276.402 47.81 277.242 47.66 278.142 47.66C279.192 47.66 280.077 47.93 280.797 48.47C281.517 48.98 281.937 49.79 282.057 50.9V51.08C282.057 51.17 282.027 51.305 281.967 51.485ZM302.873 65.345C303.083 65.135 303.413 64.97 303.863 64.85C304.313 64.73 304.763 64.67 305.213 64.67C306.323 64.67 306.878 64.955 306.878 65.525C306.878 65.795 306.728 66.095 306.428 66.425C306.068 66.845 305.738 67.25 305.438 67.64C305.138 68 304.868 68.33 304.628 68.63C303.308 70.34 302.123 71.705 301.073 72.725C300.023 73.715 298.793 74.435 297.383 74.885C296.723 75.095 296.018 75.2 295.268 75.2C294.008 75.2 292.928 74.84 292.028 74.12C291.158 73.4 290.648 72.35 290.498 70.97C290.438 70.58 290.408 69.98 290.408 69.17C290.408 67.61 290.588 66.02 290.948 64.4C291.308 62.78 291.833 60.755 292.523 58.325L293.063 56.39L291.353 56.57C290.513 56.63 289.373 56.75 287.933 56.93C287.243 57.02 286.718 56.945 286.358 56.705C285.998 56.465 285.818 56.15 285.818 55.76C285.818 55.31 286.028 54.875 286.448 54.455C286.898 54.005 287.468 53.75 288.158 53.69L293.963 53.015C295.283 48.155 296.768 43.385 298.418 38.705C298.568 38.285 298.973 37.925 299.633 37.625C300.323 37.295 300.983 37.13 301.613 37.13C302.003 37.13 302.318 37.205 302.558 37.355C302.828 37.505 302.963 37.73 302.963 38.03C302.963 38.12 302.933 38.285 302.873 38.525C301.133 43.415 299.678 48.08 298.508 52.52C300.608 52.31 302.003 52.205 302.693 52.205C303.563 52.205 303.998 52.46 303.998 52.97C303.998 53.39 303.743 53.855 303.233 54.365C302.723 54.845 302.198 55.145 301.658 55.265C299.858 55.565 298.508 55.775 297.608 55.895C297.098 57.935 296.648 59.93 296.258 61.88C296.198 62.12 295.988 63.005 295.628 64.535C295.268 66.035 295.088 67.445 295.088 68.765C295.088 70.475 295.538 71.405 296.438 71.555C297.008 71.645 297.653 71.33 298.373 70.61C299.123 69.86 300.083 68.75 301.253 67.28C301.973 66.35 302.513 65.705 302.873 65.345ZM320.034 51.125C318.504 52.295 317.259 54.185 316.299 56.795C319.239 55.685 321.894 54.755 324.264 54.005C323.274 52.625 322.269 51.695 321.249 51.215C321.039 51.125 320.829 51.065 320.619 51.035C320.439 51.005 320.334 50.99 320.304 50.99C320.334 51.02 320.304 51.05 320.214 51.08C320.154 51.11 320.094 51.125 320.034 51.125ZM320.214 47.93C320.694 47.81 321.204 47.75 321.744 47.75C324.624 47.75 327.234 49.685 329.574 53.555C329.664 53.675 329.709 53.825 329.709 54.005C329.709 54.335 329.499 54.68 329.079 55.04C328.749 55.4 328.329 55.685 327.819 55.895C324.819 57.215 320.649 58.79 315.309 60.62C315.009 62.15 314.859 63.725 314.859 65.345C314.859 66.095 314.874 66.635 314.904 66.965C314.964 68.315 315.234 69.485 315.714 70.475C315.864 70.805 316.074 71.12 316.344 71.42C316.644 71.72 316.869 71.915 317.019 72.005C317.109 72.065 317.259 72.095 317.469 72.095C317.679 72.095 317.919 72.035 318.189 71.915C318.489 71.795 318.819 71.63 319.179 71.42C320.049 70.91 320.859 70.325 321.609 69.665C322.359 69.005 323.259 68.15 324.309 67.1C324.729 66.68 325.434 66.47 326.424 66.47C326.964 66.47 327.414 66.56 327.774 66.74C328.164 66.89 328.359 67.115 328.359 67.415C328.359 67.685 328.209 67.985 327.909 68.315C326.049 70.325 324.144 72.035 322.194 73.445C320.244 74.855 318.294 75.56 316.344 75.56C315.414 75.56 314.544 75.365 313.734 74.975C312.384 74.345 311.409 73.34 310.809 71.96C310.209 70.58 309.909 68.96 309.909 67.1C309.909 65.72 310.089 64.1 310.449 62.24L310.089 62.33L309.729 62.465C309.279 62.615 308.919 62.69 308.649 62.69C308.229 62.69 307.899 62.585 307.659 62.375C307.419 62.165 307.299 61.895 307.299 61.565C307.299 61.175 307.449 60.8 307.749 60.44C308.079 60.05 308.559 59.735 309.189 59.495L311.394 58.64C311.664 57.8 312.069 56.705 312.609 55.355C313.449 53.495 314.499 51.89 315.759 50.54C317.019 49.19 318.504 48.32 320.214 47.93ZM337.155 54.05C337.155 55.19 337.44 56.195 338.01 57.065C338.61 57.935 339.33 58.67 340.17 59.27C341.01 59.87 342.15 60.575 343.59 61.385C345.54 62.495 347.025 63.5 348.045 64.4C349.095 65.3 349.785 66.425 350.115 67.775C350.235 68.375 350.295 68.81 350.295 69.08C350.295 71.18 349.185 72.695 346.965 73.625C344.745 74.525 342.225 74.975 339.405 74.975C338.295 74.975 337.32 74.9 336.48 74.75C335.49 74.57 334.455 74.225 333.375 73.715C332.325 73.175 331.44 72.53 330.72 71.78C330.03 71 329.685 70.205 329.685 69.395C329.685 68.135 330.66 66.98 332.61 65.93C333.15 65.66 333.675 65.525 334.185 65.525C334.665 65.525 335.055 65.63 335.355 65.84C335.685 66.05 335.85 66.305 335.85 66.605C335.85 67.145 335.415 67.67 334.545 68.18C334.365 68.27 334.275 68.405 334.275 68.585C334.275 68.945 334.56 69.38 335.13 69.89C335.7 70.4 336.15 70.745 336.48 70.925C337.38 71.435 338.82 71.75 340.8 71.87C341.04 71.9 341.46 71.915 342.06 71.915C343.14 71.915 344.01 71.735 344.67 71.375C345.33 71.015 345.615 70.355 345.525 69.395C345.405 68.105 344.1 66.65 341.61 65.03L339.9 63.95C338.34 62.99 337.05 62.15 336.03 61.43C335.04 60.68 334.185 59.795 333.465 58.775C332.745 57.725 332.385 56.555 332.385 55.265C332.385 54.455 332.535 53.645 332.835 52.835C333.495 50.885 334.725 49.385 336.525 48.335C338.325 47.255 340.26 46.715 342.33 46.715C344.46 46.715 346.245 47.255 347.685 48.335C349.155 49.415 349.89 50.945 349.89 52.925C349.89 53.555 349.8 54.23 349.62 54.95C349.5 55.49 349.05 55.955 348.27 56.345C347.49 56.735 346.755 56.93 346.065 56.93C345.645 56.93 345.315 56.84 345.075 56.66C344.865 56.48 344.82 56.225 344.94 55.895C345.12 55.265 345.21 54.635 345.21 54.005C345.21 53.015 344.955 52.175 344.445 51.485C343.935 50.795 343.185 50.315 342.195 50.045C341.655 49.925 341.25 49.865 340.98 49.865C339.9 49.865 338.985 50.255 338.235 51.035C337.515 51.785 337.155 52.79 337.155 54.05Z" fill="#DE643B"/>
</g>
<g filter="url(#filter1_i_147_663)">
<path d="M33.913 3.01031L29.2556 12.4326L18.8405 13.9528L26.3768 21.2829L24.5982 31.6384L33.913 26.7466L43.2278 31.6384L41.4492 21.2829L48.9855 13.9528L38.5704 12.4326L33.913 3.01031Z" fill="#F1CA47" stroke="#F1CA47" stroke-width="4" stroke-linecap="round" stroke-linejoin="round"/>
<g clip-path="url(#clip0_147_663)">
<path d="M8.58264 31.413L6.59143 36.121L1.46448 36.5663L0.285767 36.6688L1.1803 37.4423L5.06018 40.8007L3.90295 45.7948L3.63635 46.9452L4.64807 46.3358L9.04358 43.6874L13.4391 46.3358L14.4508 46.9452L14.1842 45.7948L13.028 40.7997L16.9069 37.4423L17.8014 36.6688L16.6227 36.5663L11.4967 36.121L9.50354 31.413L9.04358 30.3251L8.58264 31.413ZM9.67737 38.203L9.79456 38.4764L10.0924 38.5028L11.6754 38.6434L10.4664 39.6981L10.2408 39.8954L10.3082 40.1874L10.6647 41.7274L9.30139 40.9071L9.04163 40.7509L8.78284 40.9081L7.42346 41.7382L7.77893 40.1864L7.84631 39.8934L7.6178 39.6962L6.42053 38.662L7.99475 38.5223L8.2926 38.496L8.41077 38.2206L9.04553 36.7343L9.67737 38.203Z" fill="#F1CA47" stroke="#F1CA47"/>
</g>
<g clip-path="url(#clip1_147_663)">
<path d="M21.8551 50.9244L18.7502 57.206L11.8068 58.2194L16.831 63.1062L15.6453 70.0098L21.8551 66.7486L28.065 70.0098L26.8793 63.1062L31.9034 58.2194L24.9601 57.206L21.8551 50.9244Z" fill="#F1CA47" stroke="#F1CA47" stroke-width="3" stroke-linecap="round" stroke-linejoin="round"/>
</g>
</g>
<defs>
<filter id="filter0_d_147_663" x="36.1821" y="37.13" width="318.113" height="47.96" filterUnits="userSpaceOnUse" color-interpolation-filters="sRGB">
<feFlood flood-opacity="0" result="BackgroundImageFix"/>
<feColorMatrix in="SourceAlpha" type="matrix" values="0 0 0 0 0 0 0 0 0 0 0 0 0 0 0 0 0 0 127 0" result="hardAlpha"/>
<feOffset dy="4"/>
<feGaussianBlur stdDeviation="2"/>
<feComposite in2="hardAlpha" operator="out"/>
<feColorMatrix type="matrix" values="0 0 0 0 0 0 0 0 0 0 0 0 0 0 0 0 0 0 0.25 0"/>
<feBlend mode="normal" in2="BackgroundImageFix" result="effect1_dropShadow_147_663"/>
<feBlend mode="normal" in="SourceGraphic" in2="effect1_dropShadow_147_663" result="shape"/>
</filter>
<filter id="filter1_i_147_663" x="0" y="0" width="52" height="77" filterUnits="userSpaceOnUse" color-interpolation-filters="sRGB">
<feFlood flood-opacity="0" result="BackgroundImageFix"/>
<feBlend mode="normal" in="SourceGraphic" in2="BackgroundImageFix" result="shape"/>
<feColorMatrix in="SourceAlpha" type="matrix" values="0 0 0 0 0 0 0 0 0 0 0 0 0 0 0 0 0 0 127 0" result="hardAlpha"/>
<feOffset dy="4"/>
<feGaussianBlur stdDeviation="2"/>
<feComposite in2="hardAlpha" operator="arithmetic" k2="-1" k3="1"/>
<feColorMatrix type="matrix" values="0 0 0 0 0.870588 0 0 0 0 0.392157 0 0 0 0 0.231373 0 0 0 1 0"/>
<feBlend mode="normal" in2="shape" result="effect1_innerShadow_147_663"/>
</filter>
<clipPath id="clip0_147_663">
<rect width="18.087" height="18.0619" fill="white" transform="matrix(-1 0 0 1 18.0869 29.3505)"/>
</clipPath>
<clipPath id="clip1_147_663">
<rect width="24.1159" height="24.0825" fill="white" transform="matrix(-1 0 0 1 33.9131 48.9175)"/>
</clipPath>
</defs>
</svg>
