<svg width="290" height="105" viewBox="0 0 290 105" fill="none" xmlns="http://www.w3.org/2000/svg">
<g id="Group 16">
<g id="Description 1" filter="url(#filter0_d_147_663)">
<path d="M65.6583 57.065C65.6583 55.655 65.1483 54.365 64.1283 53.195C63.1083 52.025 61.8183 50.87 60.2583 49.73C57.3783 47.69 54.0933 45.86 50.4033 44.24C49.9833 46.79 49.3833 50.615 48.6033 55.715C48.3933 57.065 48.0333 59.315 47.5233 62.465C47.0433 65.615 46.5783 68.42 46.1283 70.88C48.8283 69.8 51.1683 68.81 53.1483 67.91C55.1283 66.98 57.0183 65.975 58.8183 64.895C60.7983 63.755 62.4333 62.57 63.7233 61.34C65.0133 60.11 65.6583 58.685 65.6583 57.065ZM65.6583 48.38C68.7783 50.84 70.3383 53.405 70.3383 56.075C70.3383 56.465 70.2933 56.885 70.2033 57.335C69.8433 59.165 68.9283 60.8 67.4583 62.24C65.9883 63.68 64.1433 65.105 61.9233 66.515C56.0733 70.205 48.8883 73.4 40.3683 76.1C39.9783 76.22 39.5883 76.28 39.1983 76.28C38.7483 76.28 38.4033 76.19 38.1633 76.01C37.8933 75.8 37.7583 75.545 37.7583 75.245C37.7583 74.945 37.9083 74.645 38.2083 74.345C38.4783 74.015 38.8833 73.745 39.4233 73.535L41.3583 72.77C41.1483 72.56 41.0883 72.32 41.1783 72.05L43.3383 58.955C44.1783 53.495 45.0783 48.05 46.0383 42.62L46.0833 42.395C45.4233 42.095 44.4033 41.675 43.0233 41.135C42.6033 40.955 42.3933 40.715 42.3933 40.415C42.3933 39.965 42.7983 39.5 43.6083 39.02C44.4483 38.51 45.2283 38.255 45.9483 38.255C46.2483 38.255 46.4583 38.285 46.5783 38.345C50.9883 40.145 54.6483 41.765 57.5583 43.205C60.4983 44.645 63.1983 46.37 65.6583 48.38ZM81.9235 51.125C80.3935 52.295 79.1485 54.185 78.1885 56.795C81.1285 55.685 83.7835 54.755 86.1535 54.005C85.1635 52.625 84.1585 51.695 83.1385 51.215C82.9285 51.125 82.7185 51.065 82.5085 51.035C82.3285 51.005 82.2235 50.99 82.1935 50.99C82.2235 51.02 82.1935 51.05 82.1035 51.08C82.0435 51.11 81.9835 51.125 81.9235 51.125ZM82.1035 47.93C82.5835 47.81 83.0935 47.75 83.6335 47.75C86.5135 47.75 89.1235 49.685 91.4635 53.555C91.5535 53.675 91.5985 53.825 91.5985 54.005C91.5985 54.335 91.3885 54.68 90.9685 55.04C90.6385 55.4 90.2185 55.685 89.7085 55.895C86.7085 57.215 82.5385 58.79 77.1985 60.62C76.8985 62.15 76.7485 63.725 76.7485 65.345C76.7485 66.095 76.7635 66.635 76.7935 66.965C76.8535 68.315 77.1235 69.485 77.6035 70.475C77.7535 70.805 77.9635 71.12 78.2335 71.42C78.5335 71.72 78.7585 71.915 78.9085 72.005C78.9985 72.065 79.1485 72.095 79.3585 72.095C79.5685 72.095 79.8085 72.035 80.0785 71.915C80.3785 71.795 80.7085 71.63 81.0685 71.42C81.9385 70.91 82.7485 70.325 83.4985 69.665C84.2485 69.005 85.1485 68.15 86.1985 67.1C86.6185 66.68 87.3235 66.47 88.3135 66.47C88.8535 66.47 89.3035 66.56 89.6635 66.74C90.0535 66.89 90.2485 67.115 90.2485 67.415C90.2485 67.685 90.0985 67.985 89.7985 68.315C87.9385 70.325 86.0335 72.035 84.0835 73.445C82.1335 74.855 80.1835 75.56 78.2335 75.56C77.3035 75.56 76.4335 75.365 75.6235 74.975C74.2735 74.345 73.2985 73.34 72.6985 71.96C72.0985 70.58 71.7985 68.96 71.7985 67.1C71.7985 65.72 71.9785 64.1 72.3385 62.24L71.9785 62.33L71.6185 62.465C71.1685 62.615 70.8085 62.69 70.5385 62.69C70.1185 62.69 69.7885 62.585 69.5485 62.375C69.3085 62.165 69.1885 61.895 69.1885 61.565C69.1885 61.175 69.3385 60.8 69.6385 60.44C69.9685 60.05 70.4485 59.735 71.0785 59.495L73.2835 58.64C73.5535 57.8 73.9585 56.705 74.4985 55.355C75.3385 53.495 76.3885 51.89 77.6485 50.54C78.9085 49.19 80.3935 48.32 82.1035 47.93ZM99.044 54.05C99.044 55.19 99.329 56.195 99.899 57.065C100.499 57.935 101.219 58.67 102.059 59.27C102.899 59.87 104.039 60.575 105.479 61.385C107.429 62.495 108.914 63.5 109.934 64.4C110.984 65.3 111.674 66.425 112.004 67.775C112.124 68.375 112.184 68.81 112.184 69.08C112.184 71.18 111.074 72.695 108.854 73.625C106.634 74.525 104.114 74.975 101.294 74.975C100.184 74.975 99.209 74.9 98.369 74.75C97.379 74.57 96.344 74.225 95.264 73.715C94.214 73.175 93.329 72.53 92.609 71.78C91.919 71 91.574 70.205 91.574 69.395C91.574 68.135 92.549 66.98 94.499 65.93C95.039 65.66 95.564 65.525 96.074 65.525C96.554 65.525 96.944 65.63 97.244 65.84C97.574 66.05 97.739 66.305 97.739 66.605C97.739 67.145 97.304 67.67 96.434 68.18C96.254 68.27 96.164 68.405 96.164 68.585C96.164 68.945 96.449 69.38 97.019 69.89C97.589 70.4 98.039 70.745 98.369 70.925C99.269 71.435 100.709 71.75 102.689 71.87C102.929 71.9 103.349 71.915 103.949 71.915C105.029 71.915 105.899 71.735 106.559 71.375C107.219 71.015 107.504 70.355 107.414 69.395C107.294 68.105 105.989 66.65 103.499 65.03L101.789 63.95C100.229 62.99 98.939 62.15 97.919 61.43C96.929 60.68 96.074 59.795 95.354 58.775C94.634 57.725 94.274 56.555 94.274 55.265C94.274 54.455 94.424 53.645 94.724 52.835C95.384 50.885 96.614 49.385 98.414 48.335C100.214 47.255 102.149 46.715 104.219 46.715C106.349 46.715 108.134 47.255 109.574 48.335C111.044 49.415 111.779 50.945 111.779 52.925C111.779 53.555 111.689 54.23 111.509 54.95C111.389 55.49 110.939 55.955 110.159 56.345C109.379 56.735 108.644 56.93 107.954 56.93C107.534 56.93 107.204 56.84 106.964 56.66C106.754 56.48 106.709 56.225 106.829 55.895C107.009 55.265 107.099 54.635 107.099 54.005C107.099 53.015 106.844 52.175 106.334 51.485C105.824 50.795 105.074 50.315 104.084 50.045C103.544 49.925 103.139 49.865 102.869 49.865C101.789 49.865 100.874 50.255 100.124 51.035C99.404 51.785 99.044 52.79 99.044 54.05ZM130.662 45.995C130.812 45.575 131.202 45.215 131.832 44.915C132.462 44.585 133.092 44.42 133.722 44.42C134.622 44.42 135.072 44.735 135.072 45.365C135.072 45.455 135.042 45.62 134.982 45.86C133.692 50.24 132.552 53.585 131.562 55.895C131.382 56.345 130.962 56.735 130.302 57.065C129.672 57.365 129.042 57.515 128.412 57.515C127.662 57.515 127.227 57.26 127.107 56.75C126.567 54.35 125.727 53.15 124.587 53.15C124.047 53.15 123.447 53.435 122.787 54.005C121.347 55.325 120.207 57.11 119.367 59.36C118.557 61.61 118.152 63.755 118.152 65.795C118.152 67.295 118.407 68.645 118.917 69.845C119.427 71.015 120.282 71.75 121.482 72.05C121.662 72.11 121.947 72.14 122.337 72.14C123.327 72.14 124.302 71.78 125.262 71.06C126.252 70.31 127.062 69.545 127.692 68.765C128.322 67.955 129.132 66.86 130.122 65.48C130.362 65.15 130.737 64.895 131.247 64.715C131.757 64.505 132.267 64.4 132.777 64.4C133.257 64.4 133.632 64.49 133.902 64.67C134.202 64.82 134.352 65.06 134.352 65.39C134.352 65.69 134.247 66.005 134.037 66.335C132.447 68.825 130.512 70.985 128.232 72.815C125.952 74.615 123.552 75.515 121.032 75.515C120.522 75.515 120.012 75.47 119.502 75.38C117.492 75.05 115.992 74.075 115.002 72.455C114.012 70.805 113.517 68.9 113.517 66.74C113.517 65.96 113.592 65.12 113.742 64.22C114.222 61.34 115.182 58.655 116.622 56.165C118.062 53.645 119.952 51.8 122.292 50.63C123.462 50.06 124.632 49.775 125.802 49.775C126.912 49.775 127.932 50.075 128.862 50.675L130.662 45.995ZM148.023 47.3C148.893 46.94 149.688 46.76 150.408 46.76C151.188 46.76 151.818 46.97 152.298 47.39C152.778 47.78 153.018 48.425 153.018 49.325C153.018 50.195 152.883 51.14 152.613 52.16C152.343 53.18 151.968 54.38 151.488 55.76L150.858 57.65C150.678 58.22 150.213 58.7 149.463 59.09C148.713 59.48 147.993 59.675 147.303 59.675C146.853 59.675 146.508 59.585 146.268 59.405C146.058 59.195 146.013 58.895 146.133 58.505C146.673 56.825 147.213 54.965 147.753 52.925C147.873 51.995 147.963 51.38 148.023 51.08L147.843 51.26C145.533 53.24 143.418 55.73 141.498 58.73C140.628 63.5 140.088 68.285 139.878 73.085C139.848 73.655 139.458 74.165 138.708 74.615C137.988 75.035 137.238 75.245 136.458 75.245C136.008 75.245 135.633 75.14 135.333 74.93C135.033 74.72 134.898 74.405 134.928 73.985C135.168 69.665 135.633 65.465 136.323 61.385C136.023 61.175 135.873 60.935 135.873 60.665C135.873 60.485 135.933 60.29 136.053 60.08L136.728 58.955C137.388 55.505 138.198 52.04 139.158 48.56C139.308 48.02 139.773 47.555 140.553 47.165C141.363 46.745 142.128 46.535 142.848 46.535C143.298 46.535 143.643 46.625 143.883 46.805C144.123 46.985 144.183 47.255 144.063 47.615C143.583 49.295 143.283 50.405 143.163 50.945C144.963 49.145 146.583 47.93 148.023 47.3ZM161.641 40.325C161.311 40.235 160.981 40.19 160.651 40.19C159.991 40.19 159.406 40.355 158.896 40.685C158.236 41.045 157.861 41.405 157.771 41.765C157.381 43.175 157.126 44.105 157.006 44.555V44.69C157.006 44.84 157.066 44.99 157.186 45.14C157.306 45.26 157.441 45.35 157.591 45.41C157.831 45.53 158.101 45.59 158.401 45.59C158.881 45.59 159.451 45.455 160.111 45.185C160.801 44.885 161.251 44.48 161.461 43.97C161.641 43.46 161.896 42.56 162.226 41.27V41.18C162.226 41.03 162.166 40.88 162.046 40.73C161.926 40.55 161.791 40.415 161.641 40.325ZM159.886 58.37C159.706 59.57 159.361 61.745 158.851 64.895C158.371 68.015 157.966 70.85 157.636 73.4C157.546 73.97 157.141 74.465 156.421 74.885C155.731 75.275 155.026 75.47 154.306 75.47C153.826 75.47 153.451 75.38 153.181 75.2C152.941 74.99 152.851 74.69 152.911 74.3C153.421 71.3 153.961 67.88 154.531 64.04C155.131 60.17 155.551 57.41 155.791 55.76L156.736 49.595C156.826 49.055 157.231 48.59 157.951 48.2C158.701 47.81 159.421 47.615 160.111 47.615C160.531 47.615 160.861 47.705 161.101 47.885C161.341 48.065 161.431 48.32 161.371 48.65L159.886 58.37ZM175.984 63.86C176.104 63.35 176.164 62.75 176.164 62.06C176.164 59.66 175.264 57.32 173.464 55.04C172.444 53.72 171.364 52.655 170.224 51.845C169.324 57.455 168.619 61.985 168.109 65.435C167.869 66.845 167.539 68.96 167.119 71.78C168.019 72.2 168.844 72.41 169.594 72.41C170.854 72.41 171.994 71.795 173.014 70.565C173.764 69.665 174.394 68.63 174.904 67.46C175.414 66.29 175.774 65.09 175.984 63.86ZM170.719 47.48C172.579 48.11 174.259 49.175 175.759 50.675C177.259 52.145 178.429 53.87 179.269 55.85C180.139 57.8 180.574 59.75 180.574 61.7C180.574 62.75 180.439 63.77 180.169 64.76C179.599 66.83 178.729 68.69 177.559 70.34C176.419 71.96 175.039 73.25 173.419 74.21C171.829 75.14 170.119 75.605 168.289 75.605C167.719 75.605 167.134 75.56 166.534 75.47C165.334 83.15 164.254 89.42 163.294 94.28C163.174 94.85 162.754 95.33 162.034 95.72C161.314 96.11 160.579 96.305 159.829 96.305C159.319 96.305 158.929 96.2 158.659 95.99C158.359 95.78 158.254 95.465 158.344 95.045C159.814 87.605 161.104 80.51 162.214 73.76L162.124 73.715C161.734 73.445 161.539 73.145 161.539 72.815C161.539 72.305 161.899 71.825 162.619 71.375C163.579 65.825 164.659 58.7 165.859 50L165.274 50.045L164.779 50.09C164.269 50.09 163.894 50 163.654 49.82C163.414 49.64 163.294 49.415 163.294 49.145C163.294 48.695 163.519 48.26 163.969 47.84C164.419 47.42 164.974 47.15 165.634 47.03C166.174 46.94 166.714 46.895 167.254 46.895C167.644 46.895 168.169 46.925 168.829 46.985C169.789 46.865 170.419 47.03 170.719 47.48ZM198.441 65.345C198.651 65.135 198.981 64.97 199.431 64.85C199.881 64.73 200.331 64.67 200.781 64.67C201.891 64.67 202.446 64.955 202.446 65.525C202.446 65.795 202.296 66.095 201.996 66.425C201.636 66.845 201.306 67.25 201.006 67.64C200.706 68 200.436 68.33 200.196 68.63C198.876 70.34 197.691 71.705 196.641 72.725C195.591 73.715 194.361 74.435 192.951 74.885C192.291 75.095 191.586 75.2 190.836 75.2C189.576 75.2 188.496 74.84 187.596 74.12C186.726 73.4 186.216 72.35 186.066 70.97C186.006 70.58 185.976 69.98 185.976 69.17C185.976 67.61 186.156 66.02 186.516 64.4C186.876 62.78 187.401 60.755 188.091 58.325L188.631 56.39L186.921 56.57C186.081 56.63 184.941 56.75 183.501 56.93C182.811 57.02 182.286 56.945 181.926 56.705C181.566 56.465 181.386 56.15 181.386 55.76C181.386 55.31 181.596 54.875 182.016 54.455C182.466 54.005 183.036 53.75 183.726 53.69L189.531 53.015C190.851 48.155 192.336 43.385 193.986 38.705C194.136 38.285 194.541 37.925 195.201 37.625C195.891 37.295 196.551 37.13 197.181 37.13C197.571 37.13 197.886 37.205 198.126 37.355C198.396 37.505 198.531 37.73 198.531 38.03C198.531 38.12 198.501 38.285 198.441 38.525C196.701 43.415 195.246 48.08 194.076 52.52C196.176 52.31 197.571 52.205 198.261 52.205C199.131 52.205 199.566 52.46 199.566 52.97C199.566 53.39 199.311 53.855 198.801 54.365C198.291 54.845 197.766 55.145 197.226 55.265C195.426 55.565 194.076 55.775 193.176 55.895C192.666 57.935 192.216 59.93 191.826 61.88C191.766 62.12 191.556 63.005 191.196 64.535C190.836 66.035 190.656 67.445 190.656 68.765C190.656 70.475 191.106 71.405 192.006 71.555C192.576 71.645 193.221 71.33 193.941 70.61C194.691 69.86 195.651 68.75 196.821 67.28C197.541 66.35 198.081 65.705 198.441 65.345ZM211.687 40.325C211.357 40.235 211.027 40.19 210.697 40.19C210.037 40.19 209.452 40.355 208.942 40.685C208.282 41.045 207.907 41.405 207.817 41.765C207.427 43.175 207.172 44.105 207.052 44.555V44.69C207.052 44.84 207.112 44.99 207.232 45.14C207.352 45.26 207.487 45.35 207.637 45.41C207.877 45.53 208.147 45.59 208.447 45.59C208.927 45.59 209.497 45.455 210.157 45.185C210.847 44.885 211.297 44.48 211.507 43.97C211.687 43.46 211.942 42.56 212.272 41.27V41.18C212.272 41.03 212.212 40.88 212.092 40.73C211.972 40.55 211.837 40.415 211.687 40.325ZM209.932 58.37C209.752 59.57 209.407 61.745 208.897 64.895C208.417 68.015 208.012 70.85 207.682 73.4C207.592 73.97 207.187 74.465 206.467 74.885C205.777 75.275 205.072 75.47 204.352 75.47C203.872 75.47 203.497 75.38 203.227 75.2C202.987 74.99 202.897 74.69 202.957 74.3C203.467 71.3 204.007 67.88 204.577 64.04C205.177 60.17 205.597 57.41 205.837 55.76L206.782 49.595C206.872 49.055 207.277 48.59 207.997 48.2C208.747 47.81 209.467 47.615 210.157 47.615C210.577 47.615 210.907 47.705 211.147 47.885C211.387 48.065 211.477 48.32 211.417 48.65L209.932 58.37ZM229.046 59.63C229.046 56.45 227.186 53.945 223.466 52.115C222.536 52.895 221.606 53.93 220.676 55.22C219.536 56.87 218.591 58.715 217.841 60.755C217.541 61.565 217.256 62.675 216.986 64.085C216.716 65.465 216.581 66.755 216.581 67.955C216.581 69.185 216.746 70.175 217.076 70.925C217.436 71.645 218.006 72.005 218.786 72.005C219.416 72.005 220.151 71.75 220.991 71.24C223.301 69.89 225.221 68.21 226.751 66.2C228.281 64.19 229.046 62 229.046 59.63ZM230.306 51.485C231.386 52.505 232.211 53.66 232.781 54.95C233.381 56.24 233.681 57.605 233.681 59.045C233.681 61.115 233.081 63.215 231.881 65.345C231.071 66.785 229.886 68.3 228.326 69.89C226.766 71.48 225.026 72.83 223.106 73.94C221.216 75.02 219.401 75.56 217.661 75.56C216.581 75.56 215.561 75.32 214.601 74.84C212.561 73.73 211.541 71.735 211.541 68.855C211.541 66.785 212.006 64.52 212.936 62.06C213.866 59.57 214.856 57.47 215.906 55.76C218.456 51.71 221.141 49.16 223.961 48.11C224.741 47.81 225.581 47.66 226.481 47.66C227.531 47.66 228.416 47.93 229.136 48.47C229.856 48.98 230.276 49.79 230.396 50.9V51.08C230.396 51.17 230.366 51.305 230.306 51.485ZM252.336 47.885C253.536 48.545 254.136 49.94 254.136 52.07C254.136 52.85 254.061 53.72 253.911 54.68C253.761 55.61 253.596 56.495 253.416 57.335L253.101 59.135L251.211 73.13C251.811 73.28 252.066 73.655 251.976 74.255C251.646 75.905 250.476 76.955 248.466 77.405L248.016 77.45C247.506 77.45 247.056 77.345 246.666 77.135C246.276 76.925 246.111 76.595 246.171 76.145C247.431 67.025 248.361 60.185 248.961 55.625C248.991 55.505 249.051 55.16 249.141 54.59C249.261 54.02 249.321 53.48 249.321 52.97C249.321 52.01 249.066 51.515 248.556 51.485C248.166 51.425 247.521 51.965 246.621 53.105C245.751 54.215 245.271 54.83 245.181 54.95C243.381 56.99 241.701 59.27 240.141 61.79C239.421 66.17 238.851 69.71 238.431 72.41L238.206 73.85C238.116 74.42 237.696 74.915 236.946 75.335C236.196 75.755 235.461 75.965 234.741 75.965C234.291 75.965 233.931 75.875 233.661 75.695C233.421 75.485 233.331 75.185 233.391 74.795C234.171 70.205 234.786 66.455 235.236 63.545C235.056 63.365 234.966 63.155 234.966 62.915C234.966 62.765 235.011 62.6 235.101 62.42C235.191 62.27 235.266 62.135 235.326 62.015C235.416 61.895 235.491 61.79 235.551 61.7L237.351 50.81C237.441 50.27 237.846 49.805 238.566 49.415C239.286 49.025 240.006 48.83 240.726 48.83C241.176 48.83 241.521 48.92 241.761 49.1C242.001 49.28 242.091 49.55 242.031 49.91C241.881 50.9 241.671 52.175 241.401 53.735L243.291 51.71C244.551 50.45 245.751 49.415 246.891 48.605C248.031 47.795 249.186 47.39 250.356 47.39C251.106 47.39 251.766 47.555 252.336 47.885ZM284.082 73.805C284.502 73.775 284.847 73.85 285.117 74.03C285.387 74.21 285.522 74.48 285.522 74.84C285.522 75.02 285.507 75.155 285.477 75.245C285.357 75.695 285.012 76.055 284.442 76.325C283.902 76.565 283.332 76.715 282.732 76.775C280.602 76.985 278.307 77.09 275.847 77.09C273.807 77.09 271.512 77.015 268.962 76.865C268.302 76.835 267.972 76.625 267.972 76.235C267.972 75.815 268.332 75.335 269.052 74.795C269.802 74.225 270.447 73.94 270.987 73.94C271.827 73.97 273.072 73.985 274.722 73.985C275.202 70.895 275.637 68.195 276.027 65.885C276.417 63.575 276.747 61.64 277.017 60.08L278.097 53.69L277.737 54.275C277.407 54.755 276.957 55.16 276.387 55.49C275.847 55.79 275.292 55.925 274.722 55.895C274.332 55.895 273.942 55.805 273.552 55.625C273.192 55.445 273.012 55.205 273.012 54.905C273.012 54.815 273.072 54.65 273.192 54.41C275.382 50.93 277.632 46.805 279.942 42.035C280.122 41.675 280.572 41.33 281.292 41C282.042 40.64 282.717 40.46 283.317 40.46C284.187 40.46 284.562 40.835 284.442 41.585C283.362 47.645 282.147 55.28 280.797 64.49L279.357 73.895C280.407 73.895 281.982 73.865 284.082 73.805Z" fill="#DE643B"/>
</g>
<g id="Group 8" filter="url(#filter1_i_147_663)">
<g id="Star">
<path id="Icon" d="M33.913 3.01031L29.2556 12.4326L18.8405 13.9528L26.3768 21.2829L24.5982 31.6384L33.913 26.7466L43.2278 31.6384L41.4492 21.2829L48.9855 13.9528L38.5704 12.4326L33.913 3.01031Z" fill="#F1CA47" stroke="#F1CA47" stroke-width="4" stroke-linecap="round" stroke-linejoin="round"/>
</g>
<g id="star" clip-path="url(#clip0_147_663)">
<path id="icon" d="M8.58264 31.413L6.59143 36.121L1.46448 36.5663L0.285767 36.6688L1.1803 37.4423L5.06018 40.8007L3.90295 45.7948L3.63635 46.9452L4.64807 46.3358L9.04358 43.6874L13.4391 46.3358L14.4508 46.9452L14.1842 45.7948L13.028 40.7997L16.9069 37.4423L17.8014 36.6688L16.6227 36.5663L11.4967 36.121L9.50354 31.413L9.04358 30.3251L8.58264 31.413ZM9.67737 38.203L9.79456 38.4764L10.0924 38.5028L11.6754 38.6434L10.4664 39.6981L10.2408 39.8954L10.3082 40.1874L10.6647 41.7274L9.30139 40.9071L9.04163 40.7509L8.78284 40.9081L7.42346 41.7382L7.77893 40.1864L7.84631 39.8934L7.6178 39.6962L6.42053 38.662L7.99475 38.5223L8.2926 38.496L8.41077 38.2206L9.04553 36.7343L9.67737 38.203Z" fill="#F1CA47" stroke="#F1CA47"/>
</g>
<g id="Star_2" clip-path="url(#clip1_147_663)">
<path id="Icon_2" d="M21.8551 50.9244L18.7502 57.206L11.8068 58.2194L16.831 63.1062L15.6453 70.0098L21.8551 66.7486L28.065 70.0098L26.8793 63.1062L31.9034 58.2194L24.9601 57.206L21.8551 50.9244Z" fill="#F1CA47" stroke="#F1CA47" stroke-width="3" stroke-linecap="round" stroke-linejoin="round"/>
</g>
</g>
</g>
<defs>
<filter id="filter0_d_147_663" x="33.7583" y="37.13" width="255.764" height="67.175" filterUnits="userSpaceOnUse" color-interpolation-filters="sRGB">
<feFlood flood-opacity="0" result="BackgroundImageFix"/>
<feColorMatrix in="SourceAlpha" type="matrix" values="0 0 0 0 0 0 0 0 0 0 0 0 0 0 0 0 0 0 127 0" result="hardAlpha"/>
<feOffset dy="4"/>
<feGaussianBlur stdDeviation="2"/>
<feComposite in2="hardAlpha" operator="out"/>
<feColorMatrix type="matrix" values="0 0 0 0 0 0 0 0 0 0 0 0 0 0 0 0 0 0 0.25 0"/>
<feBlend mode="normal" in2="BackgroundImageFix" result="effect1_dropShadow_147_663"/>
<feBlend mode="normal" in="SourceGraphic" in2="effect1_dropShadow_147_663" result="shape"/>
</filter>
<filter id="filter1_i_147_663" x="0" y="0" width="52" height="77" filterUnits="userSpaceOnUse" color-interpolation-filters="sRGB">
<feFlood flood-opacity="0" result="BackgroundImageFix"/>
<feBlend mode="normal" in="SourceGraphic" in2="BackgroundImageFix" result="shape"/>
<feColorMatrix in="SourceAlpha" type="matrix" values="0 0 0 0 0 0 0 0 0 0 0 0 0 0 0 0 0 0 127 0" result="hardAlpha"/>
<feOffset dy="4"/>
<feGaussianBlur stdDeviation="2"/>
<feComposite in2="hardAlpha" operator="arithmetic" k2="-1" k3="1"/>
<feColorMatrix type="matrix" values="0 0 0 0 0.870588 0 0 0 0 0.392157 0 0 0 0 0.231373 0 0 0 1 0"/>
<feBlend mode="normal" in2="shape" result="effect1_innerShadow_147_663"/>
</filter>
<clipPath id="clip0_147_663">
<rect width="18.087" height="18.0619" fill="white" transform="matrix(-1 0 0 1 18.0869 29.3505)"/>
</clipPath>
<clipPath id="clip1_147_663">
<rect width="24.1159" height="24.0825" fill="white" transform="matrix(-1 0 0 1 33.9131 48.9175)"/>
</clipPath>
</defs>
</svg>
