<?xml version="1.0" encoding="UTF-8"?>
<svg id="Layer_2" data-name="Layer 2" xmlns="http://www.w3.org/2000/svg" xmlns:xlink="http://www.w3.org/1999/xlink" viewBox="0 0 118.46 93.11">
  <defs>
    <style>
      .cls-1 {
        fill: #231f20;
      }

      .cls-2 {
        fill: url(#linear-gradient);
        filter: url(#drop-shadow-1);
      }
    </style>
    <linearGradient id="linear-gradient" x1="79.64" y1="81.37" x2="19.15" y2="-31.11" gradientUnits="userSpaceOnUse">
      <stop offset="0" stop-color="#c7a92e"/>
      <stop offset=".01" stop-color="#ccad31"/>
      <stop offset=".05" stop-color="#ddbb3a"/>
      <stop offset=".1" stop-color="#e9c540"/>
      <stop offset=".17" stop-color="#f0cb43"/>
      <stop offset=".37" stop-color="#f2cd45"/>
      <stop offset=".57" stop-color="#e0bd31"/>
      <stop offset=".83" stop-color="#cdad1c"/>
      <stop offset="1" stop-color="#c7a815"/>
    </linearGradient>
    <filter id="drop-shadow-1" x="0" y="0" width="118.46" height="93.11" filterUnits="userSpaceOnUse">
      <feOffset dx="0" dy="14.4"/>
      <feGaussianBlur result="blur" stdDeviation="3.6"/>
      <feFlood flood-color="#231f20" flood-opacity=".5"/>
      <feComposite in2="blur" operator="in"/>
      <feComposite in="SourceGraphic"/>
    </filter>
  </defs>
  <g id="Layer_3" data-name="Layer 3">
    <path class="cls-2" d="M118.46,65.71l-69.22,27.4C28.3,83.44,0,18.56,0,18.56L66.81,0s31.58,54.53,51.65,65.71Z"/>
    <g>
      <path class="cls-1" d="M35.56,21.42c.32.12.61.31.82.59.66,1.03-.15,1.01-.25,1.4-.08.04-.11.06-.19.09-.05-.24-.06-.86-.17-1.05-.63-.89-3.6-.13-4.24.05-1.59.52-2.89,1.27-4.13,2.17-.01.04-.02.06-.03.1.7,1.01,1.76,5.09,2.07,5.52.82-.51,1.51-.92,2.56-1.27.21-.07.45-.15.73-.22.66-.22,1.68-.31,2.38.37-.01.07-.02.11-.03.19-.15.02-.29-.08-.42-.03-.04.01-.06.02-.1.04-1.34.46-3.64,1.69-4.44,2.49-.21.22,1.97,4.81,2.35,5.4.16.21.71.99.96,1.14-.07.09-.31.26-.17.36-.04.04-.02.07,0,.09.07.1.2.08.27.18-1.3.18-2.61-1.33-3.14-2.09-.71-1.08-1.44-3.03-1.96-4.11-.04.04-.09.06-.14.08-.05.02-.11.04-.16.05-.4.1-.75-.02-1-.36-.08-.15-.44-.42-.36-.54.27-.36.76-.61,1.09-.83,0-.04,0-.05,0-.09-.68-1.98-1.01-3.61-1.86-5.58-.02,0-.03.01-.05.02-.61.52-1.61,1.28-2.45,1.54-.2,0-.8.13-.97-.11-.21-.35-.72-.6-.57-.94-.03-.05.32-.48.39-.47.16-.05,0,.29.17.24.18-.03,3.23-2.31,3.79-2.66,1.36-.72,2.66-1.38,4.2-1.88,1.49-.37,3.27-.73,5.02.13Z"/>
      <path class="cls-1" d="M36.07,28.84c.21-.07.61-.06,1.08.22-.02.1.02.29,0,.39.42.03.82.13,1.19.35.85-.57,1.71-1.41,1.79-2.5-.47-1.39-.85-2.7-1.16-3.84-.21-.66-.59-1.6-.68-2.27,0-.03,0-.04.02-.06.39.01.67-.12,1.21.25.79.54,1.71,2.11,2.07,5.03.43,1.67,1.86,5.21,3.01,6.69.25.32.49.71.88.95.04-.02.06-.02.1-.04.54-1.25.41-4.08.45-4.96.03-.42,0-.95.07-1.41.04.05.06.08.11.14.05.07.14.1.14.18-.02.06-.07.12.02.2,0,.03.04.34.03.37.05.04.07.06.11.11,0,0,.02,0,.03,0,.03.05.04.07.06.12,0,.12.02.23.01.35.02-.1.04-.19.02-.3.01.02.02.03.04.05-.07.12.06,1.16.14,1.43,0-.24-.03-.46.05-.64.07.09,0,.21.05.31.02,0,.03,0,.04.01.06.12-.02.18.02.32-.03.04.07.54.1.67-.02.02-.03.03-.06.05.04.02.06.03.11.05-.03.03-.04.05-.07.08.18,1.18.06,3.2-1.3,3.71-1.28.27-1.93-.5-2.56-1.32-1.05-1.34-1.9-3.05-2.56-4.8-.33.77-.92,1.37-1.55,1.71.04.05.16.12.19.17.62.73.89,1.29,1.21,2.27.26.77.44,2.29-.37,2.68-.08.03-.14.08-.22.11-.84.3-1.72-.1-2.27-.68-1.51-1.62-1.79-4.38-1.79-5.95,0-.03.08-.12.21-.16ZM39.09,34.65c.05.07.15.19.23.25.06-.05.14-.08.15-.11.03-1.09-.57-2.78-1.32-3.94-.16.06-.45.1-.77-.06.17.62.39,1.38.45,1.51.31,1.02.84,1.97,1.27,2.35Z"/>
      <path class="cls-1" d="M50.74,25.07c-.01.06.02.14.05.19.03.04.08.35.08.38.05.04.07.06.11.1.02-.02.03-.03.06-.05,0,0,.01.01.02.02.02.05.02.08.04.13.01.14,0,.24.06.36.04-.07-.03-.2-.02-.31.02.03.03.04.05.07.11.14.18,1.2.28,1.45,0-.24-.02-.47-.01-.7.02.11,0,.2.03.28.04.02.06.03.1.05.04.13-.02.21.04.34-.04.07.04.58.05.72-.01.02-.02.02-.03.04.03.02.05.03.08.06-.03.02-.05.04-.08.06.02.05.02.08.04.13,0,.09.03.2-.01.27.07.33.04.82.01,1.15-.04.97.11,2.42-.99,2.85-.1.04-.17.07-.29.08-1.3.27-1.95-.5-2.54-1.26-2.18-2.76-3.13-6.54-4.2-9.36-.26-.63-.63-1.58-.78-2.28.01-.02.02-.02.03-.04.38,0,.65-.15,1.22.2.75.45,2.22,3.26,2.79,6.19.53,1.71,1.12,3.41,2.26,4.85.27.34.52.69.91.9l.1-.04c.46-2.38.4-4.81.36-5.67-.01-.46-.08-1-.01-1.43.04.05.05.07.09.11.05.07.07.09.1.17Z"/>
      <path class="cls-1" d="M52.56,24.02c.29.24.59.5.83.76.63.75,1.32,2.33,1.59,3.14.21.74.29,2.28-.55,2.65-.89.35-1.73.12-2.48-.65-1.75-2.02-1.94-5.97-2.21-6.68,0-.03,0-.05,0-.09.13-.08.19-.12.31-.21.07-.03.12-.05.2-.07.36-.14.61-.15,1.07.11.17.37,0,.32.03.6.09,0,.13,0,.18.02.45-.44,1.13-.93,1.72-1.22.15-.06.44-.2.73-.31.41-.16.85-.27,1.11-.11-.04.11-.06.16-.1.27.02,0,.03,0,.04.01-.02.02-.03.03-.05.05.04.03.06.05.09.08-.02,0,0,.03.01.05,0,0,.12.07.14.06-.01.02-.02.02-.03.04-.21.05-.4.13-.59.2-.83.39-1.4.87-2.04,1.3ZM53.64,29.95c.07-.03.09-.13.06-.2.19-1.17-.92-3.83-1.84-4.88-.09-.11-.22-.15-.33-.25.07.97.5,2.16.49,2.31.37,1.03,1.02,2.41,1.41,2.81.08.06.13.12.21.22Z"/>
      <path class="cls-1" d="M58.05,19.78c.28-.11.51-.03.84.16.09.11.33.22.44.35.85,1.05.69,1.47,1.95,3.32.76,1.15,1.39,2.04,1.94,2.66.12-.08-.74-2.92-1.43-4.33-.07-.12-.23-.2-.3-.29-.56-.61-.99-1.4-.52-1.85.03-.04.08-.06.12-.08.23-.1.57.09.76.24.23.28.49.56.55.79.76-.14,1.38-.37,2.15-.6.05-.02.07-.03.12-.05.02,0,0,.26.02.25-.04.09-.06.13-.1.22.03.02.05.03.08.05-.1.03-.15.05-.25.08.05.1.2.12.26.09,0,.03,0,.05,0,.08-.3.24-.44.33-.68.43-.21.09-.5.18-1.12.35.34.91,2.27,4.97,1.28,5.39-.12.05-.26.11-.38.16-.64.27-1.71-.4-2.16-.87-1.28-1.32-2.06-2.85-2.81-4.24.19.77.37,1.54.52,2.3.48,1.83,1.23,3.83.6,4.08-1.23.51-2.16-.12-3.1-1.04-.58-.68-1.21-1.93-1.6-2.69-.58-1.12-1.43-3.41-1.89-3.96t-.04-.01s-.01-.05.01-.06c.11-.13.27-.22.46-.29.36-.14.92.17,1.17.44.42.45.96,1.52,1.47,3.01.59,1.29,1.28,2.48,2.25,3.68.05.06.08.09.13.16.03.02.05.03.08.06-.46-1.58-.96-3.17-1.22-4.71-.15-.81-.33-1.73-.34-2.49-.02-.11-.02-.34.2-.46.07-.14.36-.26.52-.32Z"/>
      <path class="cls-1" d="M53.36,41.63c-.82.12-1.48.38-2.18.66.81,1.78,1.65,4.3,1.95,5.28.29,1.27,1.47,3.14,2.04,3.9.16.18.3.4.44.56.12.14.3.31.44.44.04,0,.05.01.09.02.1-.05.14-.08.24-.13.3-1.18.28-4.18.11-6.27.12.06.18.09.3.15-.02.03-.02.05-.04.08.06.07.48.32.54.36.04-.02.06-.03.1-.04.17.48-.1.41.13.93,0,.09-.01.13-.02.22.1.24.1.61.18.91,0-.11,0-.17,0-.28.03.08,0,.21.01.3.02-.09.03-.14.05-.23.05.1.06.16.12.23-.02-.05-.03-.08-.05-.14.02.03.04.04.06.07.05.26-.02,1.99-.02,2.24-.01.19-.09.88-.11,1.1.03.11-.01.19-.07.25,0,.05,0,.07,0,.12-.29.28-.45.75-.94.96-.57.24-1.18-.1-1.82-.27-.33-.27-.82-.6-1.05-.91,0-.03-.37-.44-.45-.53-1.53-2.17-2.67-5.44-3.79-8.54-.79.46-1.62.88-2.5,1.23-.55.21-.9.17-1.09.15-.18-.05-.47-.28-.52-.35-.06-.07-.09-.11-.15-.19.3-.08.44-.12.74-.19,1.07-.41,2.06-1.1,3.13-1.68-.2-.59-.45-1.19-.66-1.78.03,0,.05-.02.08-.03.1-.04.33-.1.4-.13.03,0,.05-.02.08-.03.05-.02.15-.03.27-.04.13.05.2.07.33.11.14.13.29.28.42.44.19.2.37.49.58.83.75-.21,1.96-.51,2.35-.03.02.02.24.17.26.23Z"/>
      <path class="cls-1" d="M61.19,43.08c1.19,1.08,1.79,3.34,3,4.73.18.2.39.57.69.63.03-.01.04-.02.07-.03.59-.47-.14-4.47-.3-5.65.06.02.09.03.15.06-.01-.04-.02-.07-.03-.11.13.07.21.09.29.18.17.2.25.44.35.64,0-.03,0-.04.01-.07.02.02.02.03.04.04.09.18.13.34.21.52-.01-.11-.02-.16-.03-.26.03.1.05.15.08.24,0-.05.01-.08.02-.13.02.16.03.24.05.41,0,.15.08.33.15.49.49,1.23.52,3.5.03,4.06-.13.06-.17.2-.27.24-.12.05-.31.08-.44.13-.31.04-1,0-1.27-.22-.53-.14-1.12-.66-1.45-1.04-1.26-1.46-2.06-4.25-2.55-4.35-.47.69.6,4.94.9,6.3-.05.02-.1.04-.15.07-.23.1-.58.22-.79.3-.33.14-.46.07-.74.16-.64-.26-.88-.46-1.26-.95-2.66-3.43-4.08-10.02-4.48-9.76-.02-.05-.03-.08-.04-.13.35-.11.42-.14.64-.17,1.58-.12,2.72,3.94,2.82,4.63.43,1.41,1.49,3.28,2.19,4.31-.46-1.32-1.24-5.01.04-5.55.3-.13,1.48-.26,2.07.28Z"/>
      <path class="cls-1" d="M70.27,39.93c.06.02.09.03.15.05.12.13.13.34.23.45.02.02.09.02.09.02.05.01.08.02.13.03.23.29.2.64.29.91.67,1.71.39,5.2-1,5.83-.07.03-.14.03-.19.05-1.75.51-3.09-.07-4.23-1.5-1.24-1.58-2.07-4.73-1.56-6.17,0-.04,0-.05,0-.09-.01-.05.3-.19.4-.23.17-.07.93-.16,1.13-.16.6-.08.97-.03,1.41.47,1.73,2-.89,3.29-1.04,3.39.16.69,1.67,4.15,3.05,3.53,1.15-.52,1.25-3.91,1.14-5.12-.04-.35-.22-1.4-.07-1.64.04.04.1.11.09.17ZM65.76,41.93c.86-.65.82-1.73-.09-1.97-.1.2-.02,1.38.09,1.97Z"/>
      <path class="cls-1" d="M69.95,63.81c.17-.01.23.09.33.2.1.27.44.44.59.72.41,1.58,1.25,4.26-.22,5.4-.99.47-2.11.11-2.97-.8-1.09-1.12-2.01-3.41-2.58-4.01-.1-.11-.08.04-.08.04.03,2.01.17,4.11,1.07,6.14.15.29.26.53.27.63-.08.04-.11.08-.1.14-.07,0-.1.01-.1.01-.03.01,0,.03-.09.07-.15,0-.12-.04-.22-.03,0,.02,0,.04.02.06-.2,0-.34-.04-.45,0-.17-.02-.25-.11-.4-.11-.03,0-.05,0-.08,0-.18-.11-.29-.16-.44-.32-1.5-1.53-2.93-5.87-3.77-6.69-.02-.02-.1-.12-.12-.14-.04-.06-.06-.09-.09-.15.18-.05.47-.17.82-.2.98-.14,1.87,1.58,2.16,2.19.02.04.03.06.06.1.01-.36-.04-2.61.62-2.94.51-.17,1.28-.16,1.66.05.07.03.17.15.28.23,1.17.81,2.18,3.93,3.79,4.99.01,0,.02,0,.03-.01.5-.43.21-2.72-.11-4.53-.08-.29-.16-1.14-.14-1.28.1-.01.2.1.28.22Z"/>
      <path class="cls-1" d="M71.22,61.37c.61.23,1.07.62,1.49,1,.72.75,1.56,2.37,1.9,3.21.3.79.46,2.4-.42,2.85-.93.44-1.84.26-2.69-.5-1.99-2.01-2.45-6.19-2.79-6.92.01-.07.02-.1.03-.17.11-.07.17-.1.29-.16.08-.04.13-.06.2-.09.38-.18.65-.2,1.16.04.2.38.02.34.07.64.35.03.5,0,.76.12ZM73.37,67.62c.13-1.26-1.22-4-2.28-5.04-.1-.11-.24-.14-.39-.23.16,1.01.69,2.24.71,2.42.47,1.07,1.22,2.45,1.67,2.86.09.06.15.12.23.21.08-.04.09-.14.05-.22Z"/>
      <path class="cls-1" d="M68.06,58.76c-.64.29-2.77,1.22-3.33-.11-.02-.02-.02-.03-.04-.05,0-.03.01-.07.01-.07.05-.02.1.08.1.08.29.12.23.06.44.06.43-.04,1.04-.24,1.7-.54,1.17-.53,2.49-1.32,3.48-1.93.23-.14.6-.4,1.03-.67-.21-.5-.45-1.05-.68-1.54.02-.01.05-.02.08-.03.12-.06.34-.13.39-.15.02-.01.05-.02.07-.03.07-.03.14-.04.26-.06.13.04.2.06.33.1.17.11.33.25.45.39.14.16.32.35.48.56.15-.07.3-.14.45-.21,1.38-.65,2.81-1.04,3.24-.05,0,0-.01,0-.02.01-.08-.12-.83.02-1.74.45-.45.21-.91.43-1.42.7.98,1.78,2.07,4.41,2.41,5.43.4,1.25,1.69,3.07,2.28,3.81.17.18.33.39.47.54.12.13.32.3.49.41.04,0,.06.01.09.02.09-.06.14-.09.23-.15.22-1.2,0-4.21-.32-6.29.05.01.08.02.13.03.07.04.1.06.17.11,0,.03,0,.04,0,.07.06.07.5.3.56.33l.1-.05c.17.49-.1.43.12.9.01.11.02.16.04.27.14.22.14.61.26.89,0-.11,0-.17-.01-.28.04.08,0,.19.03.3.01-.1.02-.14.03-.24.04.08.05.17.11.23-.02-.07-.03-.1-.05-.17.03.04.05.05.08.09.18.68.16,2.56.07,3.35.03.15.02.22-.06.29.01.05.02.07.03.11-.3.31-.4.78-.9,1.03-.53.26-1.18-.04-1.8-.19-.37-.24-.88-.54-1.1-.86,0-.03-.39-.42-.48-.51-1.7-2.14-3.08-5.45-4.45-8.61-1.19.77-2.39,1.58-3.76,2.21-.03.01-.05.02-.08.03Z"/>
      <path class="cls-1" d="M84.52,56.47c.06.02.09.03.15.05.12.13.15.34.25.45.02.02.09.02.09.02.05.01.08.02.13.03.24.29.23.65.34.91.76,1.73.62,5.3-.77,6-.07.04-.14.04-.19.06-1.76.6-3.15.06-4.38-1.36-1.33-1.56-2.32-4.75-1.85-6.24,0-.04,0-.05-.01-.09-.02-.06.3-.21.4-.26.17-.08.94-.2,1.15-.21.61-.11.99-.07,1.46.43,1.85,1.97-.77,3.4-.92,3.5.19.7,1.88,4.17,3.26,3.48,1.15-.58,1.11-4.05.94-5.28-.05-.36-.28-1.42-.14-1.68.04.04.1.11.09.17ZM80.01,58.7c.84-.7.77-1.8-.17-2.01-.09.2.04,1.41.17,2.01Z"/>
      <path class="cls-1" d="M87.43,59.88s.07-.02.12-.03c0,.1.01.15.02.25,0,0,.01.01.02.02.03-.17.04-.25.06-.42.09.05.06.07.15.05-.01-.06-.02-.09-.03-.14.05.01.08.02.13.03-.05.06.02.21.04.27,0-.08.01-.12.02-.2.05.02.08.04.13.06.07.37.11.56.18.93.04.03.06.04.11.07.46-.23.9-1.07.46-1.52-.66-.68-3.71-1.37-5-2.73-1.18-1.25-.9-3.34.48-4.03.28-.14,2.07-.09,2.32.16.02.02.02.03.04.04.08.31.71,1.47.38,1.64-.21.11-.32.03-.5.06-.12-.1-.36-.45-.43-.6-.26-.34-.26-.53-.69-.51-.71.36-.9,1.94-.29,2.58.98,1.03,3.7,1.49,4.9,2.73.95.98.35,2.38-.65,2.91-.41.21-1.65.05-2.03-.34-.37-.39-.02-1.21.06-1.28Z"/>
    </g>
  </g>
</svg>