<?xml version="1.0" encoding="UTF-8"?>
<svg id="Layer_2" data-name="Layer 2" xmlns="http://www.w3.org/2000/svg" viewBox="0 0 158.4 319.94">
  <defs>
    <style>
      .cls-1 {
        fill: #5c3e6f;
      }

      .cls-2, .cls-3 {
        fill: none;
        stroke: #d5cebc;
      }

      .cls-2, .cls-3, .cls-4, .cls-5, .cls-6 {
        stroke-linecap: round;
        stroke-linejoin: round;
      }

      .cls-2, .cls-4, .cls-6 {
        stroke-width: 6px;
      }

      .cls-7 {
        fill: #f5f5dd;
        stroke: #f5f5dd;
        stroke-miterlimit: 10;
      }

      .cls-3 {
        stroke-width: 12px;
      }

      .cls-4, .cls-5 {
        fill: #df653b;
        stroke: #df653b;
      }

      .cls-5 {
        stroke-width: 10px;
      }

      .cls-6 {
        stroke: #5c3e6f;
      }

      .cls-6, .cls-8 {
        fill: #8ed2c6;
      }
    </style>
  </defs>
  <g id="Layer_4" data-name="Layer 4">
    <g>
      <path class="cls-1" d="M70.6,314.97l-16.87-29.22c-11.32-19.61,2.83-44.12,25.47-44.12h0c22.64,0,36.79,24.51,25.47,44.12l-16.87,29.22c-3.82,6.62-13.38,6.62-17.2,0Z"/>
      <path class="cls-8" d="M74.9,285.3l-8.44-14.61c-5.66-9.8,1.42-22.06,12.74-22.06h0c11.32,0,18.4,12.26,12.74,22.06l-8.44,14.61c-1.91,3.31-6.69,3.31-8.6,0Z"/>
    </g>
    <g>
      <path class="cls-7" d="M79.2,6c58.77,61.02,42.67,183.89,38.05,211.05-.55,3.26-3.55,4.57-6.67,5.63-21.44,7.26-41.32,7.26-62.76,0-3.13-1.06-6.12-2.38-6.67-5.63-4.62-27.16-20.72-150.03,38.05-211.05h0Z"/>
      <path class="cls-1" d="M119.28,220.15c-25.74,11.43-52.86,11.67-81.45,0v-38.06c27.55,11.7,54.69,11.45,81.45,0v38.06Z"/>
      <g>
        <path class="cls-2" d="M121.58,180.42h0c-28.25,14.47-56.5,14.47-84.76,0h0"/>
        <line class="cls-2" x1="79.2" y1="191.28" x2="79.2" y2="228.12"/>
        <line class="cls-2" x1="59.11" y1="188.84" x2="62.41" y2="226.55"/>
        <line class="cls-2" x1="99.29" y1="188.83" x2="95.87" y2="226.56"/>
      </g>
      <path class="cls-4" d="M100.71,36.78c-14.34,5.48-28.69,5.48-43.03,0l20.06-29.42,22.97,29.42Z"/>
      <path class="cls-5" d="M35.63,144.69C5.57,165.68-1.4,209.25,10.51,251.97c5.45-25.02,17.14-44.01,28.37-50.57"/>
      <path class="cls-5" d="M122.76,144.69c30.06,20.98,37.04,64.56,25.12,107.28-5.45-25.02-17.14-44.01-28.37-50.57"/>
      <path class="cls-3" d="M79.2,6c58.77,61.02,42.67,183.89,38.05,211.05-.55,3.26-3.55,4.57-6.67,5.63-21.44,7.26-41.32,7.26-62.76,0-3.13-1.06-6.12-2.38-6.67-5.63-4.62-27.16-20.72-150.03,38.05-211.05h0Z"/>
      <circle class="cls-6" cx="79.2" cy="92.38" r="15.49"/>
    </g>
  </g>
</svg>