<?xml version="1.0" encoding="UTF-8"?>
<svg id="Layer_2" data-name="Layer 2" xmlns="http://www.w3.org/2000/svg" xmlns:xlink="http://www.w3.org/1999/xlink" viewBox="0 0 118.46 93.11">
  <defs>
    <style>
      .cls-1 {
        fill: #231f20;
      }

      .cls-2 {
        fill: url(#linear-gradient);
        filter: url(#drop-shadow-1);
      }
    </style>
    <linearGradient id="linear-gradient" x1="79.64" y1="81.37" x2="19.15" y2="-31.11" gradientUnits="userSpaceOnUse">
      <stop offset="0" stop-color="#c7a92e"/>
      <stop offset=".01" stop-color="#ccad31"/>
      <stop offset=".05" stop-color="#ddbb3a"/>
      <stop offset=".1" stop-color="#e9c540"/>
      <stop offset=".17" stop-color="#f0cb43"/>
      <stop offset=".37" stop-color="#f2cd45"/>
      <stop offset=".57" stop-color="#e0bd31"/>
      <stop offset=".83" stop-color="#cdad1c"/>
      <stop offset="1" stop-color="#c7a815"/>
    </linearGradient>
    <filter id="drop-shadow-1" x="0" y="0" width="118.46" height="93.11" filterUnits="userSpaceOnUse">
      <feOffset dx="0" dy="14.4"/>
      <feGaussianBlur result="blur" stdDeviation="3.6"/>
      <feFlood flood-color="#231f20" flood-opacity=".5"/>
      <feComposite in2="blur" operator="in"/>
      <feComposite in="SourceGraphic"/>
    </filter>
  </defs>
  <g id="Layer_3" data-name="Layer 3">
    <path class="cls-2" d="M118.46,65.71l-69.22,27.4C28.3,83.44,0,18.56,0,18.56L66.81,0s31.58,54.53,51.65,65.71Z"/>
    <g>
      <path class="cls-1" d="M31.73,46.76c-1.06.41-2.46.31-4.21-.3-.88-.32-1.69-.72-2.43-1.19-.75-.48-1.46-1.07-2.16-1.77-.24-.24-.44-.45-.6-.62-.16-.17-.29-.3-.38-.4-.43-.48-.83-.91-1.18-1.3-.35-.39-.71-.81-1.08-1.28-.37-.46-.75-1.01-1.16-1.66-.41-.64-.88-1.44-1.42-2.4-.52-1.07-.69-2.01-.51-2.84.18-.82.59-1.5,1.22-2.06.63-.55,1.36-.95,2.19-1.2.54-.17,1.09-.27,1.65-.32.79-.1,1.78.19,2.99.86.22.68.1,1.11-.38,1.28-1.59.26-2.77.76-3.52,1.51-.76.76-.97,1.8-.61,3.11.36,1.32,1.4,2.93,3.12,4.84.56.62,1.33,1.4,2.31,2.32,1.62,1.05,2.82,1.42,3.61,1.13.76-.11,1.34-.39,1.75-.83.41-.44.63-.96.66-1.57.03-.6-.14-1.21-.52-1.81-.29-.45-.52-.81-.71-1.08-.18-.27-.33-.46-.43-.58-.03-.03-.07-.08-.14-.14-.06-.06-.14-.13-.22-.21-.19.09-.43.2-.71.34-.28.14-.61.3-.99.48l-1.48.71c-.51.18-1.06.17-1.64-.05-.58-.21-1.29-.66-2.12-1.34.01-.03.01-.09,0-.19,0-.08,0-.13.05-.14l.58-.33c.63-.37,1.2-.68,1.69-.93.49-.25.9-.46,1.25-.62.28-.14.62-.25,1.01-.33.39-.08.81-.14,1.28-.2,1.31-.13,2.45.35,3.41,1.43.37.41.67.85.92,1.31.08.12.15.26.22.42.07.16.15.33.23.51.41.88.69,1.7.83,2.47.14.77.1,1.54-.12,2.32-.16.63-.39,1.14-.69,1.51-.3.37-.67.67-1.08.9-.03.03-.09.07-.18.1-.09.03-.19.07-.31.12Z"/>
      <path class="cls-1" d="M42.89,42.35c-.5.19-1.11.25-1.83.18-.71-.06-2.31-1.12-4.83-3.2l-1.67-2.3c-.42-.66-.58-1.17-.47-1.53.11-.36.38-.71.79-1.06.27-.22.57-.38.91-.5,1.05-.36,2.37-.18,3.93.53.82.38,1.55.94,2.19,1.69.64.74,1.13,1.59,1.46,2.54.37,1.12.49,2.03.35,2.71-.09.44-.36.76-.83.94ZM40.88,40.62c.12.04.26,0,.42-.1.16-.1.24-.23.25-.4,0-.18-.07-.46-.19-.84-.12-.37-.29-.79-.51-1.24-.22-.45-.49-.86-.82-1.23-.43-.5-.93-.92-1.5-1.26-.57-.34-1.1-.52-1.59-.53-.05,0-.12.01-.23.05-.23.08-.32.17-.26.27.18.35.4.74.65,1.17s.53.91.82,1.42l.67.84c.1.11.25.28.46.51.21.23.41.43.59.58.54.44.95.69,1.24.74Z"/>
      <path class="cls-1" d="M56.57,38.19c-1.03.4-2.53.2-4.53-.61-.78-.32-1.51-.74-2.18-1.26-.67-.52-1.32-1.15-1.94-1.87-1.21-1.41-2.15-2.87-2.81-4.38-.68-1.53-.61-3.87.18-7,.12-.08.24-.15.35-.21.11-.06.22-.11.34-.15.73-.23,1.64-.06,2.73.49.39.2.69.43.91.68.15.18.27.38.37.6-.02,0-.04.01-.07.02-.03,0-.05.03-.08.05-.07.06-.12.09-.17.08-.47-.1-.86-.09-1.18,0-.52.17-.89.67-1.11,1.49-.59,2.36.22,5.04,2.44,8.01.03.05.12.16.27.34.58.67,1.23,1.21,1.97,1.62.73.4,1.35.55,1.86.43l.26-.07c.38-.14.66-.39.85-.73.08-.17.17-.47.26-.9.09-.43.16-1,.23-1.7l-.29-.27s-.05.02-.08.03c-.04.01-.08.02-.13.02-.11,0-.18.03-.21.08-.15.11-.29.22-.4.31-.11.09-.2.17-.27.23-.22.18-.41.33-.57.44-.16.12-.3.22-.4.3l-.13.08c-.37.14-.94-.01-1.72-.45-.36-.2-.65-.42-.85-.66-.22-.26-.34-.5-.37-.75l4.83-2.99c.08.05.18.1.3.17.12.06.26.14.41.21.51.26.93.49,1.24.7.31.21.6.5.87.86.02.07.03.14.04.21,0,.07.02.16.03.25.03.22.07.39.13.53.31.82.45,1.57.45,2.24,0,.67-.14,1.3-.41,1.91l-.13.28c-.11.28-.21.49-.31.63-.1.14-.22.28-.37.39-.18.13-.38.24-.59.32Z"/>
      <path class="cls-1" d="M66.27,34.99c-.27.18-.69.13-1.26-.16l-.57-.29c-.69-.34-1.25-.63-1.69-.88-.3-.17-.64-.49-1-.95-.19-.25-.43-.58-.72-.98-.3-.4-.64-.87-1.03-1.41l-.52-.72-.5-.67c-.4-.03-.76-.11-1.09-.25s-.68-.43-1.06-.86c.13-.08.25-.15.36-.21.11-.06.2-.1.28-.12.33-.13.34-.47.04-1-.17-.28-.37-.63-.6-1.05s-.49-.91-.79-1.46c-.12-.2-.24-.42-.37-.65-.13-.23-.26-.47-.4-.73-.08-.12-.17-.26-.27-.42-.1-.15-.22-.32-.36-.5-.41-.49-.5-.88-.29-1.17.28-.35.65-.7,1.1-1.04.44-.34.98-.67,1.6-1,.4-.22.84-.38,1.32-.49.63-.19,1.39.02,2.29.65.23.15.46.36.69.65.08.1.15.2.2.29.11.22.17.41.17.59s-.07.28-.23.33l-.53.2c-.12.06-.22.11-.31.14-.09.04-.17.07-.23.09-.27.09-.51.07-.72-.04-.3-.16-.55-.21-.75-.14-.03,0-.06.03-.1.05-.04.02-.09.05-.15.09l-1.02.97-.4.41,1.85,3.51.43-.29c.16-.11.29-.2.39-.26.11-.06.19-.11.24-.15l.31-.16c.1-.05.23-.12.39-.19.16-.07.35-.15.56-.22.1-.04.19-.07.27-.09.08-.03.14-.04.2-.04.37-.07.74.01,1.13.25.39.23.83.63,1.33,1.19-.04.01-.1.03-.18.04-.08.01-.16.02-.22.02-.15.02-.3.04-.44.06-.14.02-.26.05-.36.09-.26.09-.46.23-.61.41-.18.25-.4.52-.67.8-.26.29-.57.6-.91.92-.23.27-.17.67.19,1.19.2.28.4.57.59.86.19.28.38.57.56.86.17.26.33.5.48.72.16.22.29.42.4.58.04.06.09.13.15.2s.13.15.2.24l.32.39c.2-.02.37-.06.52-.11.33-.12.63-.36.9-.71.58-.61,1.13-1.24,1.65-1.88l1.01-1.15c.15-.19.29-.35.41-.5.12-.14.22-.28.3-.4.18-.23.35-.43.49-.59.15-.16.26-.29.34-.4.04-.03.08-.06.11-.08.03-.02.06-.04.09-.05.22-.08.48,0,.78.26.11.09.2.18.28.28.31.38.41.71.3,1-.04.09-.1.18-.16.28s-.14.21-.24.33c-.27.36-.51.7-.74,1.02-.23.33-.44.64-.62.95-.38.57-.72,1.06-1.02,1.47-.3.41-.55.75-.75,1.02-.08.11-.2.22-.35.35s-.34.26-.56.4l-.42.31Z"/>
      <path class="cls-1" d="M78.21,29.2c0,.2-.1.35-.29.46-.19.11-.44.17-.74.17-.3,0-.63-.06-.98-.17-.35-.12-.67-.3-.97-.54-.08-.08-.19-.17-.32-.3-.13-.12-.24-.23-.33-.32-.86-.95-1.74-1.91-2.64-2.88-.9-.97-1.77-1.95-2.59-2.94-.29-.36-.56-.67-.8-.92-.24-.25-.47-.43-.71-.53-.23-.1-.5-.1-.8,0-.19.03-.43.01-.72-.04-.3-.05-.51-.16-.64-.31-.24-.25-.38-.46-.42-.63-.04-.17-.03-.32.04-.45.07-.12.16-.22.27-.29.19-.13.34-.23.46-.3s.17-.15.15-.26c-.02-.11-.11-.29-.29-.54-.18-.25-.46-.6-.84-1.07-.23-.28-.39-.53-.48-.75s-.05-.38.11-.5c.16-.07.37-.08.63-.05.26.04.52.11.77.24.25.12.46.3.63.53.5.66.92,1.11,1.26,1.36.34.25.66.38.94.4.28.01.59,0,.93-.04.1-.03.25,0,.44.11.19.11.38.23.58.38.05.06.09.12.14.19.05.07.08.12.1.15l-1.3.67c-.42.07-.37.43.14,1.07.73.91,1.45,1.8,2.16,2.68s1.37,1.69,2.01,2.43c.63.74,1.2,1.35,1.7,1.84.12-.05.2-.12.25-.21.05-.1.02-.3-.1-.62-.08-.2-.16-.39-.24-.58-.08-.18-.11-.34-.1-.47,0-.13.1-.19.29-.19.27.06.55.2.84.43.29.23.56.53.8.92.19.28.32.5.39.65.08.15.13.3.15.46.02.16.05.41.09.75Z"/>
      <path class="cls-1" d="M71.55,66.07c-.06.03-.16.05-.31.07-.76.14-1.54-.23-2.36-1.11-.11-.11-.24-.26-.41-.45-.16-.19-.36-.41-.58-.67-.23-.27-.52-.6-.86-1-.34-.4-.74-.87-1.19-1.42l-1-1.18-1.44-1.71c0,.14.17.69.49,1.66.32.95,1.01,2.71,2.08,5.27.42.79.52,1.25.3,1.37-.11.06-.33.06-.66,0-.94-.19-1.83-.67-2.68-1.44-.65-.58-1.33-1.18-2.04-1.79-.71-.62-1.44-1.24-2.19-1.87-.18-.16-.44-.35-.76-.58-.32-.23-.63-.45-.93-.66-.3-.21-.49-.35-.59-.41l-.71-.48c.99,3.57,2.26,6.7,3.81,9.36.35.58.56.98.63,1.2.1.27.09.43-.03.5-.21.11-.7.01-1.49-.3-.59-.2-1.08-.52-1.47-.96-.21-.23-.39-.48-.53-.75-.59-1.02-1.1-2.06-1.54-3.09s-.8-2.07-1.09-3.1l-.31-1.15c-.2-.77-.39-1.46-.57-2.07s-.34-1.12-.47-1.54c-.2-.64-.09-1.06.33-1.25.04-.02.1-.04.16-.06.06-.02.15-.04.24-.07.14-.02.89.42,2.25,1.33.67.45,1.44.98,2.3,1.57.85.6,1.79,1.25,2.83,1.97l1.74,1.21c-.08-.44-.22-.92-.42-1.45-.2-.53-.5-1.23-.88-2.12-.2-.5-.38-.91-.52-1.25-.14-.33-.23-.57-.27-.72-.22-.65-.45-1.32-.67-2s-.45-1.38-.68-2.11c-.06-.2-.03-.36.09-.5,0-.02.05-.05.13-.09.16-.07.4-.08.7-.03.31.05.63.14.96.27.33.13.62.28.85.46.09.08.2.18.31.31.15.17.24.28.26.33.18.28.47.69.87,1.23,1.35,1.82,2.52,3.41,3.53,4.76,1.01,1.35,1.84,2.47,2.52,3.36.15.21.32.42.5.65.18.23.38.46.58.7l.55.69c.05.07.11.15.18.23.07.08.14.16.23.26.14.17.22.36.22.59Z"/>
      <path class="cls-1" d="M78.18,63.09c-.26.14-.55.24-.87.29-.73.12-1.52.05-2.36-.19-.85-.24-1.68-.64-2.51-1.19-.83-.55-1.58-1.22-2.26-2-.77-.9-1.37-1.89-1.79-2.99-.07-.11-.09-.21-.07-.3.01-.05.02-.09.01-.14,0-.05,0-.08,0-.11l.57.05.55.09c.53.1.91.2,1.15.31.23.11.48.32.73.61.17.2.39.48.67.86.05.07.12.16.2.26s.18.21.28.33c.22.26.49.55.79.87.3.31.64.65,1.01,1.02.43.43.82.56,1.16.38.1-.05.16-.09.17-.12.35-.38.61-.74.8-1.09.18-.34.26-.75.24-1.23-.05-.88-.13-1.7-.26-2.47-.13-.76-.33-1.54-.61-2.34-.22-.57-.51-1.07-.86-1.5-.3-.36-.65-.69-1.06-.98-.41-.3-.9-.62-1.48-.97-.95-.54-1.71-.69-2.27-.43-.22.1-.39.25-.51.44-.03.03-.08.12-.18.27-.09.15-.23.37-.41.65-.03.03-.05.06-.06.09-.02.03-.04.06-.06.09-.03.03-.05.06-.07.09s-.04.06-.07.09l-1.14,1.58c-.06.11-.15.24-.27.4-.11.15-.26.33-.43.54l-.32-.12c-.42-1.18-.51-2.34-.29-3.47.18-.89.71-1.54,1.6-1.94.63-.29,1.36-.41,2.19-.37.82.04,1.65.25,2.49.63.15.06.3.12.44.17.14.05.28.11.43.17.23.08.42.16.57.22.15.07.24.11.28.13,1.13.54,2.08,1.27,2.86,2.2.59.71,1.05,1.52,1.39,2.43.43,1.19.75,2.27.94,3.24.19.97.25,1.86.15,2.67-.13,1.38-.61,2.31-1.46,2.77Z"/>
      <path class="cls-1" d="M93.25,56.29c-.11.17-.3.17-.59.01-.42-.23-.96-.66-1.61-1.28-.18-.16-.45-.43-.8-.8-.35-.37-.8-.84-1.35-1.41-.78-.95-1.26-1.2-1.45-.73.35.77.66,1.38.94,1.84.14.23.27.44.39.64.12.2.22.38.31.54.42.86.59,1.36.5,1.49-.09.13-.48,0-1.17-.37-.27-.33-.58-.69-.92-1.08-.34-.39-.72-.83-1.14-1.31-.83-.92-1.29-1.17-1.38-.73-.1.45.05,1.02.44,1.73.39.71.86,1.45,1.42,2.24.1.14.2.29.29.47.09.18.14.33.13.47,0,.14-.1.23-.3.28-.21.04-.39,0-.56-.09-.16-.09-.33-.22-.49-.38-.16-.16-.32-.33-.48-.49-.34-.35-.65-.68-.93-.99-.28-.31-.53-.6-.74-.87-.22-.27-.44-.52-.67-.77-.22-.25-.45-.48-.67-.69-.1-.1-.27-.24-.51-.42-.26-.19-.86-.4-1.83-.62-.34-.15-.61-.34-.78-.57-.18-.23-.26-.42-.23-.59.04-.25.15-.42.35-.51.25-.12.58-.12.99,0,.41.12.79.29,1.13.52.16.11.3.21.42.29.12.08.21.16.28.21.16.13.27.18.32.15.06-.03.06-.13,0-.29l-.14-.61c-.1-.53-.1-.93.01-1.18.11-.25.38-.38.8-.38.44,0,.84.19,1.2.53l1.44,1.35-.62-1.4c-.16-.48-.18-.83-.07-1.03s.29-.31.55-.33c.25-.01.53.04.82.16.29.12.54.27.75.44l1.64,1.39c.28.23.63.57,1.07,1.02s.9.93,1.39,1.46c.49.53.96,1.03,1.4,1.52.03.02.09.09.18.21.32.4.4.73.24.98Z"/>
    </g>
  </g>
</svg>